<svg width="67" height="39" viewBox="0 0 67 39" fill="none" xmlns="http://www.w3.org/2000/svg">
<path d="M13.8096 11.8287C14.4542 11.5665 15.1418 11.4267 15.8552 11.4267C18.9782 11.4267 21.5855 14.1322 22.1814 17.7291L26.608 16.628C25.5937 10.5179 21.1643 5.91785 15.8552 5.91785C14.6376 5.91785 13.4715 6.15903 12.377 6.60646L13.8096 11.8287Z" fill="#FFCB05"/>
<path d="M8.58648 29.3271L11.5805 25.199C10.2454 23.7553 9.40303 21.6476 9.40303 19.2986C9.40303 16.9531 10.2454 14.8454 11.5805 13.4052L8.58648 9.27356C6.31732 11.7274 4.88477 15.3102 4.88477 19.2986C4.88477 23.2904 6.31732 26.8733 8.58648 29.3271Z" fill="#00A4E0"/>
<path d="M22.1814 20.8785C21.5826 24.4719 18.9782 27.1739 15.8581 27.1739C15.1418 27.1739 14.4513 27.0341 13.8096 26.7684L12.377 31.9977C13.4715 32.4416 14.6404 32.6828 15.8581 32.6828C21.1614 32.6828 25.588 28.0897 26.608 21.9866L22.1814 20.8785Z" fill="#EF4123"/>
<path d="M30.4788 25.3702C30.3326 25.0836 30.1378 24.6257 30.0175 24.2866C29.3155 22.3012 29.284 20.2458 29.8742 18.2744C30.5246 16.1107 31.7681 14.4573 33.3754 13.6114C35.3953 12.5523 37.6272 12.7585 39.564 14.1602C40.7931 15.0201 41.6641 16.3484 42.326 18.229C42.4091 18.4701 42.4835 18.7253 42.558 18.9455L30.4788 25.3702ZM34.5128 16.8028C33.0774 17.5543 32.3382 19.1972 32.4929 21.1197L38.567 17.9283C37.5212 16.4323 36.1631 15.9359 34.5128 16.8028ZM39.3233 23.7448C39.3205 23.7448 39.3205 23.7483 39.3205 23.7483L39.1944 23.6434C38.8305 24.36 38.2661 24.9438 37.5527 25.3213C36.1946 26.0413 34.9369 25.8561 34.0315 24.8878L33.9484 25.0416C33.9484 25.0416 33.9484 25.0381 33.9455 25.0381L32.4041 27.852C32.788 28.1771 33.1977 28.4497 33.6275 28.6699C35.3294 29.5333 37.0714 29.4914 38.7876 28.5826C40.0282 27.9254 41.0023 26.9257 41.667 25.6568L39.3233 23.7448ZM46.7783 9.47278V25.1115L48.7724 26.0973L47.6407 29.3201L45.4403 28.2015C44.9475 27.9394 44.6095 27.5409 44.3573 27.09C44.1138 26.6321 43.9333 25.9994 43.9333 25.1535V9.47278H46.7783ZM51.9413 21.1302C51.9413 19.7984 52.4255 18.603 53.1876 17.792L51.1419 15.0096C49.7552 16.5057 48.8813 18.6904 48.8813 21.1232C48.8785 23.5596 49.7523 25.7477 51.1362 27.2438L53.179 24.4614C52.4197 23.6469 51.9413 22.4585 51.9413 21.1302ZM55.5742 25.566C55.1731 25.566 54.7834 25.4821 54.4224 25.3353L53.4454 28.8762C54.113 29.1488 54.8264 29.2991 55.5713 29.2991C58.8089 29.3026 61.5107 26.4993 62.1382 22.7766L59.1355 22.0285C58.7946 24.0524 57.3305 25.5695 55.5742 25.566ZM55.5828 12.9613C54.8407 12.9613 54.1273 13.1081 53.4598 13.3772L54.4282 16.9216C54.792 16.7748 55.1788 16.6944 55.5799 16.6944C57.3391 16.6979 58.806 18.222 59.1384 20.2493L62.141 19.5083C61.525 15.7786 58.8232 12.9648 55.5828 12.9613Z" fill="white"/>
</svg>
