<svg width="38" height="38" viewBox="0 0 38 38" fill="none" xmlns="http://www.w3.org/2000/svg">
<path d="M6.90816 33.6228V31.6677C6.90816 30.9182 6.45196 30.4294 5.6699 30.4294C5.27887 30.4294 4.85526 30.5598 4.56199 30.9834C4.33389 30.6249 4.00803 30.4294 3.51925 30.4294C3.19339 30.4294 2.86753 30.5272 2.60685 30.8856V30.4946H1.92255V33.6228H2.60685V31.8958C2.60685 31.3418 2.90012 31.0811 3.35632 31.0811C3.81252 31.0811 4.04062 31.3744 4.04062 31.8958V33.6228H4.72492V31.8958C4.72492 31.3418 5.05077 31.0811 5.47439 31.0811C5.93059 31.0811 6.15869 31.3744 6.15869 31.8958V33.6228H6.90816ZM17.0423 30.4946H15.9344V29.5496H15.2501V30.4946H14.631V31.1137H15.2501V32.5475C15.2501 33.2644 15.5434 33.688 16.3254 33.688C16.6187 33.688 16.9446 33.5902 17.1727 33.4599L16.9771 32.8734C16.7816 33.0037 16.5535 33.0363 16.3906 33.0363C16.0647 33.0363 15.9344 32.8408 15.9344 32.5149V31.1137H17.0423V30.4946ZM22.8426 30.4294C22.4515 30.4294 22.1909 30.6249 22.0279 30.8856V30.4946H21.3436V33.6228H22.0279V31.8632C22.0279 31.3418 22.256 31.0486 22.6796 31.0486C22.81 31.0486 22.9729 31.0811 23.1033 31.1137L23.2988 30.462C23.1684 30.4294 22.9729 30.4294 22.8426 30.4294ZM14.077 30.7553C13.7512 30.5272 13.295 30.4294 12.8062 30.4294C12.0241 30.4294 11.5027 30.8205 11.5027 31.4396C11.5027 31.961 11.8938 32.2542 12.5781 32.352L12.9039 32.3846C13.2624 32.4497 13.4579 32.5475 13.4579 32.7104C13.4579 32.9385 13.1972 33.1015 12.741 33.1015C12.2848 33.1015 11.9264 32.9385 11.6983 32.7756L11.3724 33.297C11.7308 33.5577 12.2196 33.688 12.7084 33.688C13.6208 33.688 14.1422 33.2644 14.1422 32.6778C14.1422 32.1239 13.7186 31.8306 13.0669 31.7329L12.741 31.7003C12.4477 31.6677 12.2196 31.6025 12.2196 31.407C12.2196 31.1789 12.4477 31.0486 12.8062 31.0486C13.1972 31.0486 13.5882 31.2115 13.7837 31.3092L14.077 30.7553ZM32.2598 30.4294C31.8688 30.4294 31.6081 30.6249 31.4452 30.8856V30.4946H30.7609V33.6228H31.4452V31.8632C31.4452 31.3418 31.6733 31.0486 32.0969 31.0486C32.2273 31.0486 32.3902 31.0811 32.5205 31.1137L32.716 30.462C32.5857 30.4294 32.3902 30.4294 32.2598 30.4294ZM23.5269 32.0587C23.5269 33.0037 24.1786 33.688 25.1887 33.688C25.6449 33.688 25.9708 33.5902 26.2967 33.3296L25.9708 32.7756C25.7101 32.9711 25.4494 33.0689 25.1562 33.0689C24.6022 33.0689 24.2112 32.6778 24.2112 32.0587C24.2112 31.4722 24.6022 31.0811 25.1562 31.0486C25.4494 31.0486 25.7101 31.1463 25.9708 31.3418L26.2967 30.7879C25.9708 30.5272 25.6449 30.4294 25.1887 30.4294C24.1786 30.4294 23.5269 31.1137 23.5269 32.0587ZM29.8485 32.0587V30.4946H29.1642V30.8856C28.9361 30.5924 28.6102 30.4294 28.1866 30.4294C27.3068 30.4294 26.6225 31.1137 26.6225 32.0587C26.6225 33.0037 27.3068 33.688 28.1866 33.688C28.6428 33.688 28.9687 33.5251 29.1642 33.2318V33.6228H29.8485V32.0587ZM27.3394 32.0587C27.3394 31.5048 27.6978 31.0486 28.2844 31.0486C28.8383 31.0486 29.2294 31.4722 29.2294 32.0587C29.2294 32.6127 28.8383 33.0689 28.2844 33.0689C27.6978 33.0363 27.3394 32.6127 27.3394 32.0587ZM19.1604 30.4294C18.248 30.4294 17.5963 31.0811 17.5963 32.0587C17.5963 33.0363 18.248 33.688 19.193 33.688C19.6492 33.688 20.1054 33.5577 20.4638 33.2644L20.138 32.7756C19.8773 32.9711 19.5514 33.1015 19.2256 33.1015C18.8019 33.1015 18.3783 32.9059 18.2806 32.352H20.5942V32.0913C20.6267 31.0811 20.0402 30.4294 19.1604 30.4294ZM19.1604 31.016C19.584 31.016 19.8773 31.2767 19.9424 31.7654H18.3132C18.3783 31.3418 18.6716 31.016 19.1604 31.016ZM36.1375 32.0587V29.2563H35.4532V30.8856C35.2251 30.5924 34.8993 30.4294 34.4757 30.4294C33.5959 30.4294 32.9116 31.1137 32.9116 32.0587C32.9116 33.0037 33.5959 33.688 34.4757 33.688C34.9319 33.688 35.2577 33.5251 35.4532 33.2318V33.6228H36.1375V32.0587ZM33.6284 32.0587C33.6284 31.5048 33.9869 31.0486 34.5734 31.0486C35.1274 31.0486 35.5184 31.4722 35.5184 32.0587C35.5184 32.6127 35.1274 33.0689 34.5734 33.0689C33.9869 33.0363 33.6284 32.6127 33.6284 32.0587ZM10.7533 32.0587V30.4946H10.069V30.8856C9.84087 30.5924 9.51502 30.4294 9.0914 30.4294C8.21159 30.4294 7.52729 31.1137 7.52729 32.0587C7.52729 33.0037 8.21159 33.688 9.0914 33.688C9.5476 33.688 9.87346 33.5251 10.069 33.2318V33.6228H10.7533V32.0587ZM8.21159 32.0587C8.21159 31.5048 8.57003 31.0486 9.15657 31.0486C9.71053 31.0486 10.1016 31.4722 10.1016 32.0587C10.1016 32.6127 9.71053 33.0689 9.15657 33.0689C8.57003 33.0363 8.21159 32.6127 8.21159 32.0587Z" fill="white"/>
<path d="M24.1134 6.73962H13.8489V25.1831H24.1134V6.73962Z" fill="#FF5F00"/>
<path d="M14.5006 15.9613C14.5006 12.214 16.2603 8.89022 18.9649 6.73957C16.9772 5.17545 14.4681 4.23047 11.7309 4.23047C5.2463 4.23047 0 9.47677 0 15.9613C0 22.4459 5.2463 27.6922 11.7309 27.6922C14.4681 27.6922 16.9772 26.7472 18.9649 25.1831C16.2603 23.065 14.5006 19.7087 14.5006 15.9613Z" fill="#EB001B"/>
<path d="M37.9623 15.9613C37.9623 22.4459 32.716 27.6922 26.2315 27.6922C23.4943 27.6922 20.9852 26.7472 18.9974 25.1831C21.7346 23.0324 23.4617 19.7087 23.4617 15.9613C23.4617 12.214 21.7021 8.89022 18.9974 6.73957C20.9852 5.17545 23.4943 4.23047 26.2315 4.23047C32.716 4.23047 37.9623 9.50935 37.9623 15.9613Z" fill="#F79E1B"/>
</svg>
